HIERARCHY
ROOT Hips
{
	OFFSET 0.000000 121.760803 0.000000
	CHANNELS 6 Xposition Yposition Zposition Xrotation Yrotation Zrotation 
	JOINT Spine
	{
		OFFSET 0.072000 7.257294 -0.789700
		CHANNELS 3 Xrotation Yrotation Zrotation
		JOINT Spine1
		{
			OFFSET 0.000000 12.508769 -0.658067
			CHANNELS 3 Xrotation Yrotation Zrotation
			JOINT Spine1_split
			{
				OFFSET 0.000000 12.508769 -0.658067
				CHANNELS 3 Xrotation Yrotation Zrotation
				JOINT Spine2
				{
					OFFSET 0.000000 12.508769 -0.658067
					CHANNELS 3 Xrotation Yrotation Zrotation
					JOINT Neck
					{
						OFFSET 0.000000 14.033295 7.520400
						CHANNELS 3 Xrotation Yrotation Zrotation
						JOINT Head
						{
							OFFSET 0.000000 8.198502 5.703100
							CHANNELS 3 Xrotation Yrotation Zrotation
							JOINT HeadTop_End
							{
								OFFSET 0.000000 17.760803 13.332701
								CHANNELS 3 Xrotation Yrotation Zrotation
								End Site
								{
									OFFSET 0.000000 0.000000 0.000000
								}
							}
						}
					}
					JOINT LeftShoulder
					{
						OFFSET 6.292450 5.785301 -0.669000
						CHANNELS 3 Xrotation Yrotation Zrotation
						JOINT LeftShoulder_split
						{
							OFFSET 6.292450 5.785301 -0.669000
							CHANNELS 3 Xrotation Yrotation Zrotation
							JOINT LeftArm
							{
								OFFSET 13.907140 -6.093903 1.965100
								CHANNELS 3 Xrotation Yrotation Zrotation
								JOINT LeftForeArm
								{
									OFFSET 34.140198 0.000000 0.000000
									CHANNELS 3 Xrotation Yrotation Zrotation
									JOINT LeftHand
									{
										OFFSET 40.960209 0.000000 0.000000
										CHANNELS 3 Xrotation Yrotation Zrotation
										JOINT LeftHandThumb1
										{
											OFFSET 10.006996 -7.170425 9.573125
											CHANNELS 3 Xrotation Yrotation Zrotation
											JOINT LeftHandThumb2
											{
												OFFSET 1.835007 -1.059448 1.059443
												CHANNELS 3 Xrotation Yrotation Zrotation
												JOINT LeftHandThumb3
												{
													OFFSET 2.112267 -1.219513 1.219518
													CHANNELS 3 Xrotation Yrotation Zrotation
													JOINT LeftHandThumb4
													{
														OFFSET 4.843811 -2.796570 2.796576
														CHANNELS 3 Xrotation Yrotation Zrotation
														End Site
														{
															OFFSET 0.000000 0.000000 0.000000
														}
													}
												}
											}
										}
										JOINT LeftHandIndex1
										{
											OFFSET 18.389847 -0.922348 4.596882
											CHANNELS 3 Xrotation Yrotation Zrotation
											JOINT LeftHandIndex2
											{
												OFFSET 4.711273 0.000000 0.000000
												CHANNELS 3 Xrotation Yrotation Zrotation
												JOINT LeftHandIndex3
												{
													OFFSET 2.886131 0.000000 0.000000
													CHANNELS 3 Xrotation Yrotation Zrotation
													JOINT LeftHandIndex4
													{
														OFFSET 6.145912 0.000000 0.000000
														CHANNELS 3 Xrotation Yrotation Zrotation
														End Site
														{
															OFFSET 0.000000 0.000000 0.000000
														}
													}
												}
											}
										}
										JOINT LeftHandMiddle1
										{
											OFFSET 18.013008 0.000000 0.000000
											CHANNELS 3 Xrotation Yrotation Zrotation
											JOINT LeftHandMiddle2
											{
												OFFSET 4.946693 0.000000 0.000000
												CHANNELS 3 Xrotation Yrotation Zrotation
												JOINT LeftHandMiddle3
												{
													OFFSET 3.342232 0.000000 0.000000
													CHANNELS 3 Xrotation Yrotation Zrotation
													JOINT LeftHandMiddle4
													{
														OFFSET 4.461754 0.000000 0.000000
														CHANNELS 3 Xrotation Yrotation Zrotation
														End Site
														{
															OFFSET 0.000000 0.000000 0.000000
														}
													}
												}
											}
										}
										JOINT LeftHandRing1
										{
											OFFSET 15.849892 -0.102921 -4.126150
											CHANNELS 3 Xrotation Yrotation Zrotation
											JOINT LeftHandRing2
											{
												OFFSET 3.527054 0.000000 0.000000
												CHANNELS 3 Xrotation Yrotation Zrotation
												JOINT LeftHandRing3
												{
													OFFSET 2.961098 0.000000 0.000000
													CHANNELS 3 Xrotation Yrotation Zrotation
													JOINT LeftHandRing4
													{
														OFFSET 4.927200 0.000000 0.000000
														CHANNELS 3 Xrotation Yrotation Zrotation
														End Site
														{
															OFFSET 0.000000 0.000000 0.000000
														}
													}
												}
											}
										}
										JOINT LeftHandPinky1
										{
											OFFSET 12.791824 -0.832031 -6.799156
											CHANNELS 3 Xrotation Yrotation Zrotation
											JOINT LeftHandPinky2
											{
												OFFSET 3.327133 0.000000 0.000000
												CHANNELS 3 Xrotation Yrotation Zrotation
												JOINT LeftHandPinky3
												{
													OFFSET 3.014900 0.000000 0.000000
													CHANNELS 3 Xrotation Yrotation Zrotation
													JOINT LeftHandPinky4
													{
														OFFSET 5.847786 0.000000 0.000000
														CHANNELS 3 Xrotation Yrotation Zrotation
														End Site
														{
															OFFSET 0.000000 0.000000 0.000000
														}
													}
												}
											}
										}
									}
								}
							}
						}
					}
					JOINT RightShoulder
					{
						OFFSET -6.292450 5.785301 -0.669000
						CHANNELS 3 Xrotation Yrotation Zrotation
						JOINT RightShoulder_split
						{
							OFFSET -6.292450 5.785301 -0.669000
							CHANNELS 3 Xrotation Yrotation Zrotation
							JOINT RightArm
							{
								OFFSET -13.907140 -6.093903 1.965100
								CHANNELS 3 Xrotation Yrotation Zrotation
								JOINT RightForeArm
								{
									OFFSET -34.140198 0.000000 0.000000
									CHANNELS 3 Xrotation Yrotation Zrotation
									JOINT RightHand
									{
										OFFSET -40.960209 0.000000 0.000000
										CHANNELS 3 Xrotation Yrotation Zrotation
										JOINT RightHandThumb1
										{
											OFFSET -10.007050 -7.170456 9.573117
											CHANNELS 3 Xrotation Yrotation Zrotation
											JOINT RightHandThumb2
											{
												OFFSET -1.835007 -1.059448 1.059443
												CHANNELS 3 Xrotation Yrotation Zrotation
												JOINT RightHandThumb3
												{
													OFFSET -2.112267 -1.219513 1.219518
													CHANNELS 3 Xrotation Yrotation Zrotation
													JOINT RightHandThumb4
													{
														OFFSET -4.843834 -2.796585 2.796590
														CHANNELS 3 Xrotation Yrotation Zrotation
														End Site
														{
															OFFSET 0.000000 0.000000 0.000000
														}
													}
												}
											}
										}
										JOINT RightHandIndex1
										{
											OFFSET -18.389870 -0.922424 4.596786
											CHANNELS 3 Xrotation Yrotation Zrotation
											JOINT RightHandIndex2
											{
												OFFSET -4.711273 0.000000 0.000000
												CHANNELS 3 Xrotation Yrotation Zrotation
												JOINT RightHandIndex3
												{
													OFFSET -2.886131 0.000000 0.000000
													CHANNELS 3 Xrotation Yrotation Zrotation
													JOINT RightHandIndex4
													{
														OFFSET -6.145920 0.000000 0.000000
														CHANNELS 3 Xrotation Yrotation Zrotation
														End Site
														{
															OFFSET 0.000000 0.000000 0.000000
														}
													}
												}
											}
										}
										JOINT RightHandMiddle1
										{
											OFFSET -18.013008 0.000000 0.000000
											CHANNELS 3 Xrotation Yrotation Zrotation
											JOINT RightHandMiddle2
											{
												OFFSET -4.946693 0.000000 0.000000
												CHANNELS 3 Xrotation Yrotation Zrotation
												JOINT RightHandMiddle3
												{
													OFFSET -3.342232 0.000000 0.000000
													CHANNELS 3 Xrotation Yrotation Zrotation
													JOINT RightHandMiddle4
													{
														OFFSET -4.461754 0.000000 0.000000
														CHANNELS 3 Xrotation Yrotation Zrotation
														End Site
														{
															OFFSET 0.000000 0.000000 0.000000
														}
													}
												}
											}
										}
										JOINT RightHandRing1
										{
											OFFSET -15.849876 -0.102936 -4.126237
											CHANNELS 3 Xrotation Yrotation Zrotation
											JOINT RightHandRing2
											{
												OFFSET -3.527054 0.000000 0.000000
												CHANNELS 3 Xrotation Yrotation Zrotation
												JOINT RightHandRing3
												{
													OFFSET -2.961098 0.000000 0.000000
													CHANNELS 3 Xrotation Yrotation Zrotation
													JOINT RightHandRing4
													{
														OFFSET -4.927200 0.000000 0.000000
														CHANNELS 3 Xrotation Yrotation Zrotation
														End Site
														{
															OFFSET 0.000000 0.000000 0.000000
														}
													}
												}
											}
										}
										JOINT RightHandPinky1
										{
											OFFSET -12.791786 -0.832077 -6.799222
											CHANNELS 3 Xrotation Yrotation Zrotation
											JOINT RightHandPinky2
											{
												OFFSET -3.327133 0.000000 0.000000
												CHANNELS 3 Xrotation Yrotation Zrotation
												JOINT RightHandPinky3
												{
													OFFSET -3.014900 0.000000 0.000000
													CHANNELS 3 Xrotation Yrotation Zrotation
													JOINT RightHandPinky4
													{
														OFFSET -5.847786 0.000000 0.000000
														CHANNELS 3 Xrotation Yrotation Zrotation
														End Site
														{
															OFFSET 0.000000 0.000000 0.000000
														}
													}
												}
											}
										}
									}
								}
							}
						}
					}
				}
			}
		}
	}
	JOINT LeftUpLeg
	{
		OFFSET 13.026900 -6.336304 -1.092800
		CHANNELS 3 Xrotation Yrotation Zrotation
		JOINT LeftLeg
		{
			OFFSET 0.524474 -46.096886 9.782700
			CHANNELS 3 Xrotation Yrotation Zrotation
			JOINT LeftFoot
			{
				OFFSET -0.524474 -53.427422 -12.948200
				CHANNELS 3 Xrotation Yrotation Zrotation
				JOINT LeftToeBase
				{
					OFFSET 0.192200 -14.009700 16.364100
					CHANNELS 3 Xrotation Yrotation Zrotation
					JOINT LeftToe_End
					{
						OFFSET -1.784700 -0.561700 9.474800
						CHANNELS 3 Xrotation Yrotation Zrotation
						End Site
						{
							OFFSET 0.000000 0.000000 0.000000
						}
					}
				}
			}
		}
	}
	JOINT RightUpLeg
	{
		OFFSET -12.883000 -6.336304 -1.092800
		CHANNELS 3 Xrotation Yrotation Zrotation
		JOINT RightLeg
		{
			OFFSET -0.524587 -46.096825 9.782800
			CHANNELS 3 Xrotation Yrotation Zrotation
			JOINT RightFoot
			{
				OFFSET 0.524587 -53.427383 -12.948300
				CHANNELS 3 Xrotation Yrotation Zrotation
				JOINT RightToeBase
				{
					OFFSET -0.192200 -14.009700 16.364100
					CHANNELS 3 Xrotation Yrotation Zrotation
					JOINT RightToe_End
					{
						OFFSET 1.784700 -0.561700 9.474800
						CHANNELS 3 Xrotation Yrotation Zrotation
						End Site
						{
							OFFSET 0.000000 0.000000 0.000000
						}
					}
				}
			}
		}
	}
}
MOTION
Frames: 4
Frame Time: 0.016667
-0.871565 158.301270 6.954429 5.677406 -19.479751 13.271124 34.190561 -8.127008 -12.548329 -1.919972 -0.704207 -1.068981 0.000000 0.000000 0.000000 -1.861953 -0.963994 -0.958728 -27.161323 7.980846 9.093857 17.861670 13.973910 -17.635106 -0.000000 -0.000000 -0.000001 14.342921 -28.036222 31.312972 0.000000 0.000000 0.000000 -54.053287 10.158272 9.211006 -39.508690 -62.618348 -18.464457 0.677881 -3.694901 5.616511 -4.212049 -7.549094 8.222291 2.840623 18.398127 -2.239071 5.152338 25.924838 13.300410 0.000000 -0.000002 0.000000 13.557858 -2.400520 2.442073 -0.158557 0.312386 -41.706877 -0.128891 0.311007 -40.965405 -0.000001 -0.000001 -0.000005 8.872538 -0.946701 -8.698852 0.333516 0.702986 -39.129782 0.379046 0.195414 -48.544784 -0.000000 0.000001 0.000001 6.417772 2.640981 -21.662592 0.073914 0.361670 -38.094004 0.395910 0.821435 -44.654674 0.000000 -0.000001 -0.000003 -5.773318 7.351754 -20.511936 0.248341 0.299221 -53.404020 0.241120 0.241029 -44.234037 0.000001 -0.000001 -0.000000 3.778674 7.559638 -24.581258 0.000000 0.000000 0.000000 -73.831422 -14.404394 -24.052241 -51.826256 60.836720 47.494994 9.141593 7.948710 -22.976008 -13.975071 13.836806 -0.527693 10.118320 -39.599442 -4.011432 6.542920 -35.207112 -15.255716 0.000002 -0.000001 0.000000 11.271641 3.607146 -9.674706 -0.308898 -0.132931 59.230171 -0.170446 -0.110455 51.772861 -0.000003 -0.000001 0.000001 5.407489 -9.717471 -10.964786 0.477110 -0.644338 52.079888 0.534060 -0.126613 64.442985 -0.000003 0.000002 0.000000 4.999327 -19.199891 -5.805079 0.293127 -0.312910 63.639768 0.520298 -0.595219 70.565478 -0.000001 0.000002 0.000002 10.206693 -27.451350 11.592853 0.317953 -0.173613 82.243886 0.448155 -0.094714 74.484975 -0.000002 0.000001 0.000001 -95.106518 -6.642470 25.323046 55.061372 -5.862908 -13.981625 17.551699 -7.279852 8.346099 -0.331984 0.927822 -0.306366 0.000003 -0.000002 0.000001 -99.762815 9.250077 9.363120 122.823576 -4.930562 -1.854831 33.047519 1.856751 -2.380404 -0.332350 -0.927800 0.306427 0.000001 0.000000 0.000001 
-0.982658 158.632111 13.127346 5.275510 -19.246351 12.961502 33.943189 -8.515405 -12.256084 -1.705504 -0.826082 -1.172773 0.000000 0.000000 0.000000 -1.718726 -1.101915 -0.901944 -26.754455 7.923673 9.300321 17.616752 14.580977 -17.741030 -0.000001 0.000000 0.000000 13.329971 -28.376438 28.717360 0.000000 0.000000 0.000000 -55.448572 15.227873 10.991225 -68.123767 -71.308172 -47.693036 11.233201 4.906546 -1.251272 -4.209885 -7.549280 8.222493 2.840279 18.399220 -2.238934 5.151154 25.910920 13.294520 0.000003 -0.000001 0.000003 13.557229 -2.399533 2.530730 -0.158562 0.312334 -41.632274 -0.128870 0.310889 -40.861743 0.000004 0.000001 -0.000000 8.872453 -0.946798 -8.589846 0.333088 0.702604 -39.040460 0.378432 0.195015 -48.423377 0.000001 -0.000001 0.000001 6.418082 2.640019 -21.526856 0.073513 0.361140 -37.984919 0.395113 0.820801 -44.508921 0.000003 -0.000001 0.000002 -5.768894 7.348702 -20.334971 0.247764 0.298814 -53.267300 0.240399 0.240432 -44.057377 0.000002 -0.000003 0.000001 3.694517 8.731533 -22.067283 0.000000 0.000000 0.000000 -77.217659 -16.836293 -27.351904 -55.432367 62.389803 51.618058 16.842391 16.542155 -19.530859 -13.852518 13.688639 -0.611937 9.965733 -39.155166 -3.888440 6.510298 -34.644430 -15.024710 0.000001 0.000003 -0.000000 11.276139 3.678398 -9.745163 -0.306500 -0.132132 58.914664 -0.169440 -0.110421 51.552495 -0.000003 -0.000002 0.000002 5.433444 -9.621385 -11.002379 0.474234 -0.645758 51.742125 0.531771 -0.127861 64.128557 0.000003 -0.000000 -0.000003 5.046087 -19.088475 -5.820360 0.290796 -0.313053 63.102301 0.518619 -0.598785 70.126618 0.000001 0.000001 0.000003 10.132931 -27.291955 11.300281 0.315807 -0.176087 81.291300 0.445618 -0.098562 73.835615 -0.000001 -0.000001 -0.000000 -92.722994 -5.360117 23.584519 53.250733 -6.186721 -13.632770 17.769506 -6.613626 8.426211 -0.332159 0.927322 -0.306082 0.000003 -0.000000 0.000001 -101.725689 8.538673 9.625609 120.284303 -6.837141 -1.960604 34.722766 1.970508 0.987308 -0.332168 -0.927369 0.306099 0.000002 0.000001 0.000000 
-1.226044 158.726791 19.058664 4.894164 -19.288203 12.788178 33.105797 -8.732762 -11.929939 -1.359168 -0.996960 -1.581736 0.000000 0.000000 0.000000 -1.479992 -1.199190 -0.910617 -25.746982 7.766832 9.873792 17.083715 15.326024 -18.187470 0.000002 0.000000 0.000000 11.862435 -27.977706 26.191829 0.000000 0.000000 0.000000 -55.866006 16.656011 11.417595 -90.273750 -72.340029 -70.563586 19.159077 8.441135 -6.769443 -4.203534 -7.550149 8.223042 2.839352 18.402343 -2.238593 5.147698 25.871681 13.277951 -0.000001 -0.000000 0.000003 13.555465 -2.396743 2.784491 -0.158624 0.312157 -41.417943 -0.129036 0.310481 -40.562482 -0.000000 0.000001 -0.000001 8.872081 -0.947113 -8.279684 0.332002 0.701605 -38.784823 0.376807 0.193718 -48.074307 0.000002 0.000000 0.000001 6.418731 2.637045 -21.143312 0.072423 0.359710 -37.674234 0.392913 0.819034 -44.091986 -0.000000 0.000000 0.000001 -5.757112 7.340631 -19.839316 0.246138 0.297669 -52.881036 0.238457 0.238649 -43.554590 0.000000 -0.000001 -0.000000 3.769980 11.074704 -19.093288 0.000000 0.000000 0.000000 -80.238706 -18.402075 -30.381556 -59.729314 63.810093 56.438850 22.161727 22.495015 -18.508126 -13.517968 13.281415 -0.839654 9.540015 -37.919533 -3.541117 6.405232 -33.062084 -14.379790 0.000001 0.000002 0.000001 11.289809 3.880610 -9.945023 -0.299519 -0.129946 58.013865 -0.166494 -0.110374 50.920208 -0.000001 -0.000004 0.000001 5.507141 -9.351069 -11.108380 0.465964 -0.649708 50.784096 0.525309 -0.131438 63.230825 -0.000002 0.000001 0.000001 5.176596 -18.778302 -5.863766 0.284153 -0.313260 61.589960 0.513549 -0.608701 68.881768 0.000006 -0.000001 -0.000001 9.940345 -26.854699 10.500340 0.309561 -0.182911 78.639335 0.438291 -0.109074 72.008458 -0.000002 -0.000001 -0.000001 -89.724104 -5.187474 21.728550 51.383148 -4.492467 -13.059498 18.227362 -7.484676 8.128013 -0.332155 0.925689 -0.305196 0.000001 0.000001 -0.000000 -100.579296 8.422614 8.745169 116.085499 -8.086167 -1.998546 34.675235 1.705007 4.254209 -0.332338 -0.925743 0.305244 -0.000004 -0.000001 0.000001 
-1.574919 158.557678 24.726810 4.512047 -19.569175 12.733939 31.769303 -8.759820 -11.568827 -0.846945 -1.225806 -2.282629 0.000000 0.000000 0.000000 -0.947533 -1.280962 -1.065719 -24.462888 7.530888 10.745749 16.255903 16.199312 -18.782564 0.000001 -0.000001 -0.000000 9.913576 -27.228085 23.284590 0.000000 0.000000 0.000000 -55.741020 16.364886 11.372910 -102.459101 -71.986021 -83.327946 24.322526 9.290163 -10.411717 -4.193078 -7.551385 8.223957 2.837671 18.407225 -2.238125 5.142380 25.810062 13.251844 0.000001 -0.000002 0.000001 13.552906 -2.392306 3.184919 -0.158805 0.311849 -41.077755 -0.129238 0.309973 -40.085479 -0.000001 -0.000000 -0.000001 8.871432 -0.947735 -7.793589 0.330246 0.699889 -38.381278 0.374184 0.191692 -47.520478 -0.000000 -0.000000 -0.000002 6.419543 2.632740 -20.547441 0.070582 0.357281 -37.187259 0.389510 0.816120 -43.433798 0.000001 -0.000000 -0.000000 -5.740883 7.329637 -19.078033 0.243628 0.295898 -52.280802 0.235424 0.235848 -42.766454 0.000002 0.000000 0.000000 3.679088 13.977357 -16.002228 0.000000 0.000000 0.000000 -82.618235 -19.392434 -32.930528 -63.588747 64.803790 60.717185 25.040903 25.957323 -18.710098 -13.022061 12.669923 -1.171289 8.888036 -36.040364 -2.998091 6.205637 -30.619895 -13.395420 -0.000007 0.000001 -0.000000 11.314036 4.196120 -10.256875 -0.288782 -0.126906 56.596679 -0.161911 -0.110431 49.919401 -0.000003 0.000002 -0.000002 5.623070 -8.933875 -11.273142 0.452871 -0.655363 49.288417 0.514951 -0.136640 61.818519 -0.000001 -0.000004 -0.000000 5.376700 -18.306176 -5.932428 0.273739 -0.313137 59.252649 0.504960 -0.623708 66.938347 0.000002 -0.000001 -0.000000 9.678775 -26.201526 9.310118 0.298896 -0.192533 74.597106 0.425960 -0.124465 69.184612 -0.000003 0.000000 0.000001 -86.322533 -5.905846 19.684825 49.107742 -2.212345 -12.359352 18.995668 -8.428341 7.381241 -0.332287 0.923153 -0.303762 0.000002 0.000002 0.000001 -97.344676 8.288700 7.433969 110.690688 -8.022555 -2.013505 33.598445 0.077039 8.119316 -0.332169 -0.923206 0.303734 0.000003 0.000001 0.000000 
